HIERARCHY
ROOT hip
{
  OFFSET 0 0 0
  CHANNELS 6 Xposition Yposition Zposition Zrotation Yrotation Xrotation
  JOINT abdomen
  {
    OFFSET 0 20.6881 -0.73152
    CHANNELS 3 Zrotation Xrotation Yrotation
    JOINT chest
    {
      OFFSET 0 11.7043 -0.48768
      CHANNELS 3 Zrotation Xrotation Yrotation
      JOINT neck
      {
        OFFSET 0 22.1894 -2.19456
        CHANNELS 3 Zrotation Xrotation Yrotation
        JOINT head
        {
          OFFSET -0.24384 7.07133 1.2192
          CHANNELS 3 Zrotation Xrotation Yrotation
          JOINT leftEye
          {
            OFFSET 4.14528 8.04674 8.04672
            CHANNELS 3 Zrotation Xrotation Yrotation
            End Site
            {
              OFFSET 1 0 0
            }
          }
          JOINT rightEye
          {
            OFFSET -3.6576 8.04674 8.04672
            CHANNELS 3 Zrotation Xrotation Yrotation
            End Site
            {
              OFFSET 1 0 0
            }
          }
        }
      }
      JOINT rCollar
      {
        OFFSET -2.68224 19.2634 -4.8768
        CHANNELS 3 Zrotation Xrotation Yrotation
        JOINT rShldr
        {
          OFFSET -8.77824 -1.95073 1.46304
          CHANNELS 3 Zrotation Xrotation Yrotation
          JOINT rForeArm
          {
            OFFSET -28.1742 -1.7115 0.48768
            CHANNELS 3 Zrotation Xrotation Yrotation
            JOINT rHand
            {
              OFFSET -22.5879 0.773209 7.07136
              CHANNELS 3 Zrotation Xrotation Yrotation
              JOINT rThumb1
              {
                OFFSET -1.2192 -0.487915 3.41376
                CHANNELS 3 Zrotation Xrotation Yrotation
                JOINT rThumb2
                {
                  OFFSET -3.37035 -0.52449 3.41376
                  CHANNELS 3 Zrotation Xrotation Yrotation
                  End Site
                  {
                    OFFSET -1.78271 -1.18214 1.43049
                  }
                }
              }
              JOINT rIndex1
              {
                OFFSET -7.75947 0.938293 5.60832
                CHANNELS 3 Zrotation Xrotation Yrotation
                JOINT rIndex2
                {
                  OFFSET -2.54057 -0.884171 1.56538
                  CHANNELS 3 Zrotation Xrotation Yrotation
                  End Site
                  {
                    OFFSET -1.62519 -0.234802 1.16502
                  }
                }
              }
              JOINT rMid1
              {
                OFFSET -8.24714 1.18213 3.41376
                CHANNELS 3 Zrotation Xrotation Yrotation
                JOINT rMid2
                {
                  OFFSET -3.10165 -0.590103 1.0647
                  CHANNELS 3 Zrotation Xrotation Yrotation
                  End Site
                  {
                    OFFSET -2.48547 -0.328903 0.83742
                  }
                }
              }
              JOINT rRing1
              {
                OFFSET -8.82822 0.546677 1.51678
                CHANNELS 3 Zrotation Xrotation Yrotation
                JOINT rRing2
                {
                  OFFSET -2.60934 -0.819778 -0.0198488
                  CHANNELS 3 Zrotation Xrotation Yrotation
                  End Site
                  {
                    OFFSET -2.33842 -0.294052 0.168128
                  }
                }
              }
              JOINT rPinky1
              {
                OFFSET -8.27202 -0.0477905 -0.4584
                CHANNELS 3 Zrotation Xrotation Yrotation
                JOINT rPinky2
                {
                  OFFSET -1.82734 -0.647385 -0.700984
                  CHANNELS 3 Zrotation Xrotation Yrotation
                  End Site
                  {
                    OFFSET -1.69225 -0.51767 -0.607171
                  }
                }
              }
            }
          }
        }
      }
      JOINT lCollar
      {
        OFFSET 2.68224 19.2634 -4.8768
        CHANNELS 3 Zrotation Xrotation Yrotation
        JOINT lShldr
        {
          OFFSET 8.77824 -1.95073 1.46304
          CHANNELS 3 Zrotation Xrotation Yrotation
          JOINT lForeArm
          {
            OFFSET 28.1742 -1.7115 0.48768
            CHANNELS 3 Zrotation Xrotation Yrotation
            JOINT lHand
            {
              OFFSET 22.5879 0.773209 7.07136
              CHANNELS 3 Zrotation Xrotation Yrotation
              JOINT lThumb1
              {
                OFFSET 1.2192 -0.487915 3.41376
                CHANNELS 3 Zrotation Xrotation Yrotation
                JOINT lThumb2
                {
                  OFFSET 3.37035 -0.52449 3.41376
                  CHANNELS 3 Zrotation Xrotation Yrotation
                  End Site
                  {
                    OFFSET 1.78271 -1.18214 1.43049
                  }
                }
              }
              JOINT lIndex1
              {
                OFFSET 7.75947 0.938293 5.60832
                CHANNELS 3 Zrotation Xrotation Yrotation
                JOINT lIndex2
                {
                  OFFSET 2.54057 -0.884171 1.56538
                  CHANNELS 3 Zrotation Xrotation Yrotation
                  End Site
                  {
                    OFFSET 1.62519 -0.234802 1.16502
                  }
                }
              }
              JOINT lMid1
              {
                OFFSET 8.24714 1.18213 3.41376
                CHANNELS 3 Zrotation Xrotation Yrotation
                JOINT lMid2
                {
                  OFFSET 3.10165 -0.590103 1.0647
                  CHANNELS 3 Zrotation Xrotation Yrotation
                  End Site
                  {
                    OFFSET 2.48547 -0.328903 0.83742
                  }
                }
              }
              JOINT lRing1
              {
                OFFSET 8.82822 0.546677 1.51678
                CHANNELS 3 Zrotation Xrotation Yrotation
                JOINT lRing2
                {
                  OFFSET 2.60934 -0.819778 -0.0198488
                  CHANNELS 3 Zrotation Xrotation Yrotation
                  End Site
                  {
                    OFFSET 2.33842 -0.294052 0.168128
                  }
                }
              }
              JOINT lPinky1
              {
                OFFSET 8.27202 -0.0477905 -0.4584
                CHANNELS 3 Zrotation Xrotation Yrotation
                JOINT lPinky2
                {
                  OFFSET 1.82734 -0.647385 -0.700984
                  CHANNELS 3 Zrotation Xrotation Yrotation
                  End Site
                  {
                    OFFSET 1.69225 -0.51767 -0.607171
                  }
                }
              }
            }
          }
        }
      }
    }
  }
  JOINT rButtock
  {
    OFFSET -8.77824 4.35084 1.2192
    CHANNELS 3 Zrotation Xrotation Yrotation
    JOINT rThigh
    {
      OFFSET 0 -1.70687 -2.19456
      CHANNELS 3 Zrotation Xrotation Yrotation
      JOINT rShin
      {
        OFFSET 0 -36.8199 0.73152
        CHANNELS 3 Zrotation Xrotation Yrotation
        JOINT rFoot
        {
          OFFSET 0.73152 -45.1104 -5.12064
          CHANNELS 3 Zrotation Xrotation Yrotation
          End Site
          {
            OFFSET -1.1221 -3.69964 12.103
          }
        }
      }
    }
  }
  JOINT lButtock
  {
    OFFSET 8.77824 4.35084 1.2192
    CHANNELS 3 Zrotation Xrotation Yrotation
    JOINT lThigh
    {
      OFFSET 0 -1.70687 -2.19456
      CHANNELS 3 Zrotation Xrotation Yrotation
      JOINT lShin
      {
        OFFSET 0 -36.8199 0.73152
        CHANNELS 3 Zrotation Xrotation Yrotation
        JOINT lFoot
        {
          OFFSET -0.73152 -45.1104 -5.12064
          CHANNELS 3 Zrotation Xrotation Yrotation
          End Site
          {
            OFFSET 1.1221 -3.69964 12.103
          }
        }
      }
    }
  }
}
MOTION
Frames:	6
Frame Time:	0.03333
0.0 0.0 0.0 0.0 0.0 0.0 0.0 0.0 0.0 0.0 0.0 0.0 0.0 0.0 0.0 0.0 0.0 0.0 0.0 0.0 0.0 0.0 0.0 0.0 0.0 0.0 0.0 0.0 0.0 0.0 0.0 0.0 0.0 0.0 0.0 0.0 0.0 0.0 0.0 0.0 0.0 0.0 0.0 0.0 0.0 0.0 0.0 0.0 0.0 0.0 0.0 0.0 0.0 0.0 0.0 0.0 0.0 0.0 0.0 0.0 0.0 0.0 0.0 0.0 0.0 0.0 0.0 0.0 0.0 0.0 0.0 0.0 0.0 0.0 0.0 0.0 0.0 0.0 0.0 0.0 0.0 0.0 0.0 0.0 0.0 0.0 0.0 0.0 0.0 0.0 0.0 0.0 0.0 0.0 0.0 0.0 0.0 0.0 0.0 0.0 0.0 0.0 0.0 0.0 0.0 0.0 0.0 0.0 0.0 0.0 0.0 0.0 0.0 0.0 0.0 0.0 0.0 0.0 0.0 0.0 0.0 0.0 0.0 0.0 0.0 0.0 0.0 0.0 0.0 0.0 0.0 0.0
-0.09659999999999999 35.4626 0.1712 -179.215187 72.572957 -179.869399 -0.00697 4.279847 0.093397 14.094726 -5.548463 -106.161879 1.819972 -32.695121 16.049474 101.135833 36.465778 26.543257 -49.764024 -18.945176 39.571884 -28.361023 1.609452 -6.363473 93.337904 76.949212 174.934692 36.598523 -60.223976 -158.295134 3.972673 -20.016735 -23.739061 47.836377 -43.86973 31.645516 103.759323 82.834326 12.626474 -47.077443 64.654902 -79.684818 -63.007268 -13.155851 -140.468733 153.349015 32.980586 -60.64656 -159.036929 11.820993 83.407436 46.440931 58.040766 -81.704026 -67.488718 -19.241078 140.325429 131.803912 18.155768 -116.820291 -144.067066 -72.382109 167.358198 -59.739157 -75.995548 141.8348 -55.046683 28.93149 -56.425877 102.881412 -59.714879 123.186932 -159.862703 9.602543 -159.894062 -158.864503 14.677109 -131.373882 -77.036423 70.211317 108.688563 -97.033859 -13.730923 101.340935 -164.264033 -0.028619 -144.093625 157.56703 -12.634708 38.692036 -174.53364 -7.11828 -159.76988 5.840067 21.094019 57.990582 51.726159 65.885363 -75.738738 155.938657 24.793725 12.66226 80.731973 -43.783357 -1.115636 43.42804 47.491745 -145.133067 43.584765 54.59023 130.574125 3.630764 64.030516 0.0 -11.260008 7.630976 -145.239914 79.043331 78.39938 -149.792471 16.873961 -69.661724 8.385285 -25.295946 68.13126 -0.0 -6.707739 -2.655161 -31.180473 -172.344856 17.927927 34.228205
0.19970000000000002 56.8327 0.3535 -3.438122 -54.277109 2.743508 -3.557321 12.100098 0.601501 2.538015 -3.823671 14.594453 -13.216846 2.809173 -85.960525 25.535448 16.523417 76.143212 25.386133 -0.351293 -1.559599 55.069203 -22.067667 -41.014286 -147.546573 53.80884 129.265494 -95.878916 0.4041 63.831457 -166.31125 10.53074 -141.606497 -2.968811 18.130852 2.060621 20.835317 -21.689972 63.774489 -95.582098 79.380068 111.411021 -52.897318 -28.733913 -78.377781 161.28287 79.745102 -96.670119 -123.658168 35.877949 137.205548 -18.818706 79.829115 -21.818119 24.041993 11.268006 -1.961287 -162.587188 11.057958 110.268256 -107.151979 46.435485 -125.64734 63.307699 -23.049809 -77.697044 148.917722 -15.298791 -164.166083 46.479524 -7.819064 15.29335 -4.394034 -5.478483 64.908693 169.527387 15.705804 -149.817899 136.642812 -16.320782 -113.399869 -164.932216 79.836456 -113.710775 -30.870257 9.898994 25.654228 -177.685579 3.861493 -33.814214 88.586358 -24.514085 144.857009 -46.045048 62.159834 -31.149427 10.804399 3.809537 15.148737 97.498593 68.503853 -83.187538 22.722992 32.156107 -13.976553 126.535557 21.528497 99.982943 25.499426 80.308476 154.179108 111.327399 82.157662 128.133615 27.287602 17.615093 -173.309557 -2.341335 3.487465 122.055485 -94.97646 51.115592 -69.050983 149.445858 63.749244 -146.647054 -4.147962 -18.108145 -173.311697 -51.789663 1.184635 11.97452
0.5091 67.85940000000001 0.3643 -8.848991 -53.616857 7.500789 2.274203 8.833103 165.499752 -0.996175 1.66593 -156.05596 -19.214292 18.57586 -84.258554 40.440975 25.099758 79.639037 10.001439 -1.211207 -13.775925 -8.267371 2.80569 -37.437677 21.043329 -74.482905 6.986458 142.420619 38.365423 -114.022699 -106.168716 29.503781 54.666097 144.562569 -69.090421 126.450377 -3.571692 16.880323 -5.420145 -108.174762 -23.489505 94.826572 -137.446743 0.73704 147.351102 158.973774 57.336592 -130.537977 -10.590239 -38.377652 -42.036016 -79.862684 44.0828 70.339638 9.857749 0.254187 -3.39834 157.129463 -61.503162 155.24595 -144.545831 60.52205 -147.994 -159.742628 11.004485 -151.003322 2.575217 18.225619 -3.074863 110.297249 -10.08301 -149.583583 -1.475047 -21.218995 67.680341 -174.841478 -14.204721 -146.415164 161.183149 1.162621 -79.963398 -173.189072 -3.542916 -91.044257 -1.909613 16.847167 -15.013736 -50.836482 -56.248551 -66.544987 -18.296422 45.493991 9.288795 33.168973 -33.184986 -1.130311 150.639374 13.166221 154.25854 -96.636971 48.943787 85.420094 23.669361 84.128254 -36.338103 -74.225164 -60.945047 -47.144886 38.388646 10.550028 36.488246 -54.045628 10.355426 -97.428337 -29.258783 25.942881 109.129403 -14.93879 6.767721 -42.641501 -169.376848 76.052338 -10.938203 -146.658317 41.518568 -23.048496 -18.545229 34.017325 -19.681458 71.901344 36.806492 -12.638308
0.5481 68.2815 0.4542 -13.076021 -53.863065 10.012917 7.527028 11.795935 -1.238591 -1.986628 -4.142664 11.226629 -19.560426 23.23035 -78.997743 44.378788 18.828362 76.877741 8.115121 -0.213922 -3.014991 -15.303485 3.039683 -22.343272 -16.461424 41.2693 19.544789 48.44858 14.551557 33.309908 175.484241 24.282439 95.766523 -176.739541 -3.635361 142.828546 41.950941 -31.869467 -0.61128 -119.84036 11.641851 100.540439 -78.712411 64.565197 84.208485 -25.731998 10.503067 -70.715281 -0.708751 -23.073864 -35.992905 -177.363551 -10.238047 114.459601 -141.877891 0.33217 177.106952 -134.761496 0.151319 176.203777 15.368037 42.68758 14.76131 -109.696225 44.836484 -176.342501 -2.442279 -33.315784 5.755939 -70.97784 24.25644 17.969823 12.51391 9.744791 -27.778573 -0.538888 1.933592 -4.135856 -94.927072 -42.004196 -47.884442 40.195562 -61.68916 61.742595 24.733752 26.074924 -36.114676 39.39545 68.191929 43.738875 1.170642 2.572392 9.794648 -25.038015 -16.22943 -37.733307 -15.224815 42.239098 12.349429 132.65808 53.904941 -95.115069 1.108888 30.924083 -3.428002 -7.515256 -49.275774 2.695286 -142.078356 66.723576 -40.301759 144.540659 66.112154 32.797615 27.683972 31.689212 31.508735 -134.656231 49.350665 51.742339 23.406268 5.059627 11.741471 9.232327 -43.051069 -70.460479 -48.536098 -5.851335 77.035928 -61.676113 -25.912152 23.984388
0.5458000000000001 67.1046 0.8154 -14.998221 -53.502325 9.846587 7.554443 11.844897 38.79655 -1.648862 -1.884492 -27.668848 2.545037 25.008072 105.610811 -39.599967 8.744768 -101.22302 -19.570577 -5.790618 32.687674 6.895776 -1.197613 -19.682334 -150.200836 20.911332 153.351703 121.934414 -34.135914 138.78193 170.728415 7.299813 97.987757 179.211653 -5.075369 142.690183 2.989363 -1.511355 6.164552 -125.890906 -1.451049 110.526834 -123.90539 -20.236058 136.278904 -94.394595 0.361394 141.712006 -128.074072 -60.278197 -169.246633 3.024183 54.171843 31.649206 0.372318 -0.716998 5.211162 -2.530682 -44.894863 -4.093301 15.934703 23.524178 2.896261 29.473653 -6.71879 20.476282 152.44841 22.033515 -156.122543 56.835105 4.050163 -20.404862 176.310702 11.427256 156.685094 7.501465 30.30292 -6.846632 -77.052052 -43.266699 -29.174569 17.024398 -19.507444 27.105371 -96.879988 -59.308411 -36.307772 171.819637 -1.787873 -60.309418 -3.771022 -0.505777 9.960038 58.187385 31.407019 -62.833747 150.937764 66.889946 -177.333862 -15.089715 58.716475 48.224852 -24.721298 61.255766 2.344352 172.942951 77.745261 171.472939 155.015421 71.637435 -0.0 -136.771919 68.207162 -45.351188 14.127005 41.58992 92.196773 84.851657 73.704764 -176.186517 93.983381 51.050073 37.262285 -102.57973 -18.413408 151.91216 16.005042 -65.578471 56.201007 -80.640865 52.591864 162.797766
